# xmcd
#
# Track frame offsets: 
#        150
#        24740
#        46855
#        71432
#
# Disc length: 1245 seconds
#
# Revision: 1
# Processed by: cddbd v1.5.2PL0 Copyright (c) Steve Scherf et al.
# Submitted via: ExactAudioCopy v1.1
#
DISCID=2c04db04
DTITLE=Wake Up, Girls! - 7 Senses
DYEAR=2017
DGENRE=JPop
TTITLE0=7 Senses
TTITLE1=タチアガレ! (6人ver.)
TTITLE2=7 Senses (Instrumental)
TTITLE3=タチアガレ! (6人ver.) (Instrumental)
EXTD=YEAR: 2005
EXTT0=
EXTT1=
EXTT2=
EXTT3=
PLAYORDER=
